<?xml version="1.0" encoding="UTF-8"?>
<svg id="_レイヤー_2" data-name=" レイヤー 2" xmlns="http://www.w3.org/2000/svg" version="1.1" viewBox="0 0 404.7 500.4">
  <defs>
    <style>
      .cls-1 {
        fill: #fff;
        stroke-width: 0px;
      }
    </style>
  </defs>
  <path class="cls-1" d="M342.5,409.6h0c37.1-35.5,60.1-85,60.1-139.7s-23.6-105.6-61.6-141.2c24.4-9.7,41.6-33.5,41.6-61.3S353,1.4,316.6,1.4s-66,29.6-66,66,.5,8.8,1.3,13c-15.8-3.9-32.3-6-49.3-6s-36.5,2.5-53.5,7.1c1-4.5,1.5-9.2,1.5-14.1C150.6,31,121,1.4,84.6,1.4S18.6,31,18.6,67.4s18.6,53.5,44.5,62.4C25.8,165.3,2.6,215,2.6,269.9s22,101.9,57.6,137.2h0s-7.1,66.3-7.1,66.3c-.3,3.3.2,6.6,1.6,9.5,3.7,8.1,13.4,21.2,35.1,13.1,4.8-1.8,8.6-5.5,10.5-10.3l15.8-39.5c26.2,12.3,55.5,19.2,86.5,19.2s57.6-6.3,82.9-17.5l13.9,36.8c1.6,4.1,4.8,7.4,8.9,9,9.3,3.6,26.3,7.1,38.4-8.4,2.5-3.2,3.7-7.3,3.2-11.4l-7.5-64.2h0Z"/>
</svg>